# xmcd
#
# Track frame offsets: 
#        150
#        23335
#        42310
#        56839
#        79320
#        100225
#        121515
#        139820
#        159552
#        176475
#        200272
#        221865
#
# Disc length: 3364 seconds
#
# Revision: 0
# Processed by: cddbd v1.5.2PL0 Copyright (c) Steve Scherf et al.
# Submitted via: ExactAudioCopyFreeDBPlugin 1.0
#
DISCID=9f0d220c
DTITLE=Lucky Strikers - Lucky Strikers
DYEAR=1995
DGENRE=Blues
TTITLE0=Slip, Slide and Hope
TTITLE1=One Of These Nights
TTITLE2=Gimme Something
TTITLE3=The Harder It Comes
TTITLE4=Hand In Pocket
TTITLE5=Easy Living
TTITLE6=Stay Away
TTITLE7=Lying
TTITLE8=Neighbourhood Love
TTITLE9=Green Indian
TTITLE10=Yankee Doodle
TTITLE11=Flame
EXTD=
EXTT0=
EXTT1=
EXTT2=
EXTT3=
EXTT4=
EXTT5=
EXTT6=
EXTT7=
EXTT8=
EXTT9=
EXTT10=
EXTT11=
PLAYORDER=
